HIERARCHY
ROOT Hips
{
	OFFSET 0.000000 0.000000 0.000000
	CHANNELS 6 Xposition Yposition Zposition Zrotation Yrotation Xrotation 
	JOINT LHipJoint
	{
		OFFSET 0.000000 0.000000 0.000000
		CHANNELS 3 Zrotation Yrotation Xrotation
		JOINT LeftUpLeg
		{
			OFFSET 8.178360 -10.767780 5.035740
			CHANNELS 3 Zrotation Yrotation Xrotation
			JOINT LeftLeg
			{
				OFFSET 14.688660 -40.356780 0.000000
				CHANNELS 3 Zrotation Yrotation Xrotation
				JOINT LeftFoot
				{
					OFFSET 15.373200 -42.237540 0.000000
					CHANNELS 3 Zrotation Yrotation Xrotation
					JOINT LeftToeBase
					{
						OFFSET 0.945840 -2.598660 13.935300
						CHANNELS 3 Zrotation Yrotation Xrotation
						End Site
						{
							OFFSET 0.000000 0.000000 0.000000
						}
					}
				}
			}
		}
	}
	JOINT RHipJoint
	{
		OFFSET 0.000000 0.000000 0.000000
		CHANNELS 3 Zrotation Yrotation Xrotation
		JOINT RightUpLeg
		{
			OFFSET -7.833120 -10.767780 5.035740
			CHANNELS 3 Zrotation Yrotation Xrotation
			JOINT RightLeg
			{
				OFFSET -15.255180 -41.913300 0.000000
				CHANNELS 3 Zrotation Yrotation Xrotation
				JOINT RightFoot
				{
					OFFSET -15.409560 -42.337380 0.000000
					CHANNELS 3 Zrotation Yrotation Xrotation
					JOINT RightToeBase
					{
						OFFSET -0.988380 -2.715540 14.178900
						CHANNELS 3 Zrotation Yrotation Xrotation
						End Site
						{
							OFFSET 0.000000 0.000000 0.000000
						}
					}
				}
			}
		}
	}
	JOINT LowerBack
	{
		OFFSET 0.000000 0.000000 0.000000
		CHANNELS 3 Zrotation Yrotation Xrotation
		JOINT Spine
		{
			OFFSET 0.169620 12.213540 -1.160280
			CHANNELS 3 Zrotation Yrotation Xrotation
			JOINT Spine1
			{
				OFFSET 0.340320 12.293100 -0.256500
				CHANNELS 3 Zrotation Yrotation Xrotation
				JOINT Neck
				{
					OFFSET 0.000000 0.000000 0.000000
					CHANNELS 3 Zrotation Yrotation Xrotation
					JOINT Neck1
					{
						OFFSET -0.325020 10.477440 1.032120
						CHANNELS 3 Zrotation Yrotation Xrotation
						JOINT Head
						{
							OFFSET 0.624420 10.568160 -0.743820
							CHANNELS 3 Zrotation Yrotation Xrotation
							End Site
							{
								OFFSET 0.000000 0.000000 0.000000
							}
						}
					}
				}
				JOINT LeftShoulder
				{
					OFFSET 0.000000 0.000000 0.000000
					CHANNELS 3 Zrotation Yrotation Xrotation
					JOINT LeftArm
					{
						OFFSET 20.174460 7.205340 -1.867260
						CHANNELS 3 Zrotation Yrotation Xrotation
						JOINT LeftForeArm
						{
							OFFSET 29.898000 -0.000000 -0.000000
							CHANNELS 3 Zrotation Yrotation Xrotation
							JOINT LeftHand
							{
								OFFSET 20.901360 -0.000000 -0.000000
								CHANNELS 3 Zrotation Yrotation Xrotation
								JOINT LeftFingerBase
								{
									OFFSET 0.000000 0.000000 0.000000
									CHANNELS 3 Zrotation Yrotation Xrotation
									JOINT LeftHandIndex1
									{
										OFFSET 4.291560 -0.000000 -0.000000
										CHANNELS 3 Zrotation Yrotation Xrotation
										End Site
										{
											OFFSET 0.000000 0.000000 0.000000
										}
									}
								}
								JOINT LThumb
								{
									OFFSET 0.000000 0.000000 0.000000
									CHANNELS 3 Zrotation Yrotation Xrotation
									End Site
									{
										OFFSET 0.000000 0.000000 0.000000
									}
								}
							}
						}
					}
				}
				JOINT RightShoulder
				{
					OFFSET 0.000000 0.000000 0.000000
					CHANNELS 3 Zrotation Yrotation Xrotation
					JOINT RightArm
					{
						OFFSET -18.819600 8.244300 -2.427900
						CHANNELS 3 Zrotation Yrotation Xrotation
						JOINT RightForeArm
						{
							OFFSET -31.451400 -0.000000 -0.000000
							CHANNELS 3 Zrotation Yrotation Xrotation
							JOINT RightHand
							{
								OFFSET -20.665020 -0.000000 -0.000000
								CHANNELS 3 Zrotation Yrotation Xrotation
								JOINT RightFingerBase
								{
									OFFSET 0.000000 0.000000 0.000000
									CHANNELS 3 Zrotation Yrotation Xrotation
									JOINT RightHandIndex1
									{
										OFFSET -3.735180 -0.000000 -0.000000
										CHANNELS 3 Zrotation Yrotation Xrotation
										End Site
										{
											OFFSET 0.000000 0.000000 0.000000
										}
									}
								}
								JOINT RThumb
								{
									OFFSET 0.000000 0.000000 0.000000
									CHANNELS 3 Zrotation Yrotation Xrotation
									End Site
									{
										OFFSET 0.000000 0.000000 0.000000
									}
								}
							}
						}
					}
				}
			}
		}
	}
}
MOTION
Frames:	10
Frame Time:	0.0333333
-81.761130 107.468664 75.378288 0.983775 -2.295252 3.034806 -2.756140 1.396737 2.263219 -16.156491 -7.911785 -10.483829 -0.067510 7.051798 21.353553 0.180761 -1.505733 -0.895301 0.018700 -0.882000 -2.424100 0.712313 -1.210494 1.054090 22.115178 3.972448 -14.894917 -2.274070 -9.694987 29.336210 0.109933 -2.268560 -5.212325 -0.159700 -2.574600 7.096600 -0.210413 -0.418062 7.075362 1.590426 -0.492822 1.280614 0.449189 -0.271337 -4.032810 -13.665394 -7.097575 -14.061757 4.518296 -7.701732 24.747327 3.522000 -4.596200 15.801100 -6.311997 -0.902686 -1.572568 -85.973631 2.153186 19.389824 18.311245 -25.572326 -4.938908 -1.118176 -2.245178 5.580924 19.545953 22.520360 8.914500 -7.125000 0.000000 0.000000 -9.883800 56.022600 -2.691200 5.068931 1.364539 -0.996751 83.717069 -1.272518 14.569171 -18.035942 26.326123 -4.451248 0.248463 -0.105558 6.279278 -12.244451 8.176873 -1.822100 7.125000 0.000000 0.000000 10.374800 -21.584800 5.926400 
-81.897150 107.612478 74.371008 1.254019 -1.368890 3.496104 -2.740770 1.277173 2.091676 -16.117734 -8.408600 -11.951447 0.042348 7.301904 22.055676 0.240626 -2.210871 0.222529 0.019700 -0.906000 -2.490300 0.723145 -1.166742 1.060250 21.892259 3.885904 -16.103555 -2.248603 -9.663228 29.212276 0.222674 -2.820586 -4.996918 -0.101200 -2.051200 5.647200 0.013321 -0.224871 7.575754 1.581673 -0.215020 1.373105 0.275129 -0.115130 -4.109614 -13.312210 -6.072946 -13.878969 3.802666 -6.261413 25.864825 3.409400 -4.104700 16.061800 -6.247593 -1.015783 -1.558279 -85.993205 1.678429 20.519871 18.856371 -26.252886 -5.251500 -1.112199 -2.226495 5.086404 20.046929 22.199973 9.039500 -7.125000 0.000000 0.000000 -9.188800 55.776900 -2.444700 5.048510 1.312909 -1.020611 83.386513 -1.260353 14.698099 -18.761453 27.285359 -4.813034 0.245650 -0.107681 5.430483 -12.133632 8.638229 -1.906300 7.125000 0.000000 0.000000 10.434200 -21.119200 6.073500 
-82.081110 107.719140 73.255866 1.882425 -0.187677 3.976836 -2.719586 1.152296 1.896904 -16.376902 -9.044700 -13.560241 0.202704 7.666402 23.087715 0.322141 -2.934049 0.146690 0.110500 -2.143300 -5.901900 0.736071 -1.111374 1.063877 21.320465 4.139220 -17.249503 -2.243398 -9.670390 29.202651 0.472852 -4.070766 -4.836175 -0.129200 -2.316500 6.381200 -0.250525 -0.129635 8.204122 1.556586 -0.102782 1.486713 0.426372 -0.058314 -4.231763 -14.798753 -6.064382 -14.101434 5.138134 -5.935388 26.392943 4.397800 -4.026500 16.549000 -6.198814 -0.933092 -1.579536 -86.168455 1.595550 21.441932 19.815124 -27.443417 -5.822330 -1.015795 -2.186751 4.349978 19.743245 21.330891 8.561300 -7.125000 0.000000 0.000000 -9.182200 54.764500 -2.216300 4.980916 1.427829 -0.976079 82.840029 -1.230971 15.349964 -19.378433 28.072417 -5.129610 0.247454 -0.072027 3.398023 -11.855375 8.113898 -1.744900 7.125000 0.000000 0.000000 10.664000 -21.683500 6.072900 
-82.160808 107.759286 72.097584 1.554279 1.165505 4.052205 -2.663013 1.057537 1.732403 -15.628966 -9.853082 -14.798597 0.484569 8.218960 24.707008 0.546459 -4.647817 -0.844466 0.231100 -3.094000 -8.540700 0.724207 -1.085513 1.060864 21.734103 3.499934 -18.084925 -2.175895 -9.545615 28.804211 0.585821 -4.559194 -4.146486 -0.192900 -2.828400 7.801500 0.718322 -0.010960 8.891160 1.653549 0.165968 1.835983 0.002627 0.097916 -3.980186 -13.248117 -4.791378 -13.799780 3.074923 -4.267300 27.018310 3.430700 -3.435900 16.337200 -6.056844 -1.120089 -1.549471 -85.986224 1.461498 23.095140 20.991148 -28.891392 -6.550414 -0.939361 -2.239180 3.560735 19.781805 21.953872 8.780500 -7.125000 0.000000 0.000000 -9.470900 55.441000 -2.443200 4.963040 1.248100 -1.035477 82.638337 -1.614314 15.189842 -20.685130 29.711972 -5.822038 0.252551 -0.058025 2.964700 -12.062546 8.084097 -1.767100 7.125000 0.000000 0.000000 10.514400 -21.718500 5.976300 
-82.257882 107.890512 70.950684 1.311575 2.078961 3.904445 -2.550296 0.983286 1.615597 -15.177329 -9.868332 -15.942298 0.996581 9.115439 27.420846 0.727103 -6.070323 -1.852612 0.741500 -5.500700 -15.342300 0.690818 -1.069996 1.048823 22.120604 2.927691 -18.553089 -2.116280 -9.418243 28.407153 0.715241 -5.113429 -2.987761 -0.375600 -3.936000 10.896600 1.306676 0.160961 9.560359 1.737670 0.474151 2.201618 -0.233871 0.266586 -3.684956 -12.315904 -3.851774 -14.434156 2.114998 -2.923231 28.169071 3.034200 -2.936700 16.868400 -5.957315 -1.232343 -1.529854 -85.834322 1.239716 23.992748 21.894504 -29.961485 -7.130475 -0.863975 -2.228132 3.114312 19.528762 21.716183 8.555600 -7.125000 0.000000 0.000000 -9.683500 55.121600 -2.423400 4.958700 1.145846 -1.069741 82.418293 -1.663346 15.110093 -21.664753 30.901798 -6.368121 0.240752 -0.033828 2.975716 -11.703462 7.553956 -1.596300 7.125000 0.000000 0.000000 10.813200 -22.286900 6.009500 
-82.341168 107.989980 69.875694 1.310983 2.645610 3.609696 -2.387321 0.956923 1.542543 -15.191510 -9.679586 -16.692733 1.889941 10.461857 31.728427 0.848975 -7.129672 -3.039286 0.973900 -6.282600 -17.606700 0.650149 -1.067019 1.040265 22.131694 2.677134 -18.520577 -1.985526 -9.163772 27.616838 0.778170 -5.376371 -2.101064 -0.345500 -3.776700 10.449400 1.457612 0.394007 10.099317 1.810983 0.821446 2.463333 -0.226708 0.433831 -3.530880 -12.937123 -3.710412 -14.553733 2.996764 -2.630012 29.391474 3.652800 -2.850700 17.608400 -5.939411 -1.189572 -1.535179 -85.835548 1.285333 24.468729 22.365240 -30.502497 -7.440951 -0.846700 -2.190200 2.831282 19.730262 21.098147 8.424900 -7.125000 0.000000 0.000000 -9.206600 54.489800 -2.160400 4.970838 1.189796 -1.019790 81.577150 -0.626326 15.198983 -20.890536 29.998184 -5.939891 0.241110 -0.063712 3.134624 -11.682425 8.259191 -1.747200 7.125000 0.000000 0.000000 10.785800 -21.551100 6.177800 
-82.357350 108.225474 68.811486 1.385633 3.297693 3.336611 -2.213735 0.986256 1.498662 -15.271240 -10.191887 -16.672788 3.022700 11.880631 36.666134 0.773212 -7.147697 -2.875464 0.825400 -5.796400 -16.194800 0.603221 -1.102807 1.048595 22.029643 2.119815 -18.414986 -1.802397 -8.813476 26.501713 0.847974 -5.703964 -0.997387 -0.232000 -3.100100 8.557600 1.472173 0.507923 10.384960 1.848672 0.976868 2.544512 -0.204818 0.519137 -3.551722 -12.748170 -3.034738 -14.207600 2.912374 -1.703671 30.204214 3.746600 -2.515100 17.840000 -5.895729 -1.196172 -1.545885 -85.782528 2.103156 24.364948 22.837984 -31.075060 -7.742484 -0.700853 -2.415037 2.452919 18.042960 24.401038 8.679800 -7.125000 0.000000 0.000000 -12.781500 57.658800 -4.004700 4.979403 1.122423 -1.021915 81.260826 -0.356886 14.578118 -20.600379 29.645799 -5.773038 0.256793 -0.076540 4.040178 -12.352316 8.327409 -1.867600 7.125000 0.000000 0.000000 10.288700 -21.449400 5.907700 
-82.238106 108.484332 67.782636 1.605683 3.569089 2.969445 -2.071976 1.054895 1.518750 -15.587087 -10.606238 -15.848745 4.170593 13.064596 41.229460 0.667176 -7.403087 -1.858273 0.768300 -5.597100 -15.619900 0.558768 -1.154927 1.050404 21.648836 1.422873 -18.202682 -1.612628 -8.442061 25.315573 0.805988 -5.509065 0.241387 -0.228300 -3.075600 8.489400 1.405898 0.681884 10.301470 1.878107 1.186869 2.720459 -0.221217 0.639079 -3.255371 -11.678711 -1.880187 -13.683831 1.841277 -0.192358 30.369143 3.250200 -1.907800 17.494000 -5.886052 -1.286776 -1.523822 -85.902872 2.571437 23.739859 22.587252 -30.819477 -7.579172 -0.714900 -2.433282 2.404691 18.151821 24.556910 8.792200 -7.125000 0.000000 0.000000 -12.745200 57.857500 -4.054300 5.015550 0.967390 -1.055440 81.155193 -0.418564 13.885323 -20.771090 29.856258 -5.861290 0.259628 -0.067638 3.831431 -12.420094 8.125404 -1.831600 7.125000 0.000000 0.000000 10.248800 -21.658300 5.834700 
-82.019394 108.695856 66.737604 1.722090 3.436832 2.712854 -1.962192 1.150537 1.591944 -15.779401 -10.934802 -14.460961 5.091023 13.858221 44.661721 0.561062 -8.240367 0.341591 0.823000 -5.788400 -16.171700 0.521847 -1.199112 1.036179 21.333149 1.309100 -18.181900 -1.482593 -8.190292 24.487929 0.768154 -5.377140 1.334921 -0.142300 -2.431100 6.698500 1.558477 0.904920 9.999084 1.813482 1.484548 2.800564 -0.508334 0.798597 -2.981068 -10.900367 -0.737359 -13.415978 1.468553 1.315189 30.858623 3.160000 -1.277100 17.484800 -5.902517 -1.325584 -1.511489 -85.574749 3.323035 23.289575 21.979534 -30.180023 -7.191498 -0.704555 -2.522226 2.406396 17.673715 25.802397 8.929700 -7.125000 0.000000 0.000000 -14.051300 59.060800 -4.888200 5.042095 0.843288 -1.082156 81.225237 -0.451792 13.296747 -20.781874 29.874422 -5.864383 0.266815 -0.062121 3.112543 -12.565866 8.073074 -1.841800 7.125000 0.000000 0.000000 10.142000 -21.708300 5.760200 
-81.770718 108.816300 65.666208 1.795944 2.819110 2.384022 -1.892892 1.262220 1.741445 -15.871238 -10.832728 -12.497971 5.693357 14.271972 46.795152 0.549337 -11.441450 2.805707 0.907000 -6.069100 -16.985000 0.481987 -1.242831 1.009734 21.087623 1.456477 -18.065381 -1.382377 -7.992867 23.839326 0.651251 -4.861306 2.485374 -0.182300 -2.749800 7.583000 1.500626 1.202890 9.833865 1.864707 1.862065 2.799815 -0.526707 0.989845 -2.957835 -10.443074 0.531006 -13.218245 1.143726 3.148233 31.367658 3.191200 -0.570000 17.520000 -5.965936 -1.372625 -1.499845 -85.837415 3.871001 21.423326 20.742228 -28.741940 -6.408361 -0.852694 -2.425675 3.682918 18.491392 24.468452 8.976400 -7.125000 0.000000 0.000000 -12.251000 57.867500 -3.896900 5.084140 0.725461 -1.125615 81.199524 -0.845382 12.865103 -21.099354 30.259327 -6.038653 0.253736 -0.055750 2.922367 -12.125508 8.015489 -1.761200 7.125000 0.000000 0.000000 10.472000 -21.787400 5.934700 
